<?xml version="1.0" encoding="UTF-8" standalone="no"?>
<svg width="369px" height="280px" version="1.1" xmlns="http://www.w3.org/2000/svg" xmlns:xlink="http://www.w3.org/1999/xlink" overflow="visible" id="pavwxxh">
   <desc>Engraved by Verovio 6.1.0</desc>
   <defs>
      <g id="E050-pavwxxh">
         <path transform="scale(1,-1)" d="M441 -245c-23 -4 -48 -6 -76 -6c-59 0 -102 7 -130 20c-88 42 -150 93 -187 154c-26 44 -43 103 -48 176c0 6 -1 13 -1 19c0 54 15 111 45 170c29 57 65 106 110 148s96 85 153 127c-3 16 -8 46 -13 92c-4 43 -5 73 -5 89c0 117 16 172 69 257c34 54 64 82 89 82 c21 0 43 -30 69 -92s39 -115 41 -159v-15c0 -109 -21 -162 -67 -241c-13 -20 -63 -90 -98 -118c-13 -9 -25 -19 -37 -29l31 -181c8 1 18 2 28 2c58 0 102 -12 133 -35c59 -43 92 -104 98 -184c1 -7 1 -15 1 -22c0 -123 -87 -209 -181 -248c8 -57 17 -110 25 -162 c5 -31 6 -58 6 -80c0 -30 -5 -53 -14 -70c-35 -64 -88 -99 -158 -103c-5 0 -11 -1 -16 -1c-37 0 -72 10 -108 27c-50 24 -77 59 -80 105v11c0 29 7 55 20 76c18 28 45 42 79 44h6c49 0 93 -42 97 -87v-9c0 -51 -34 -86 -105 -106c17 -24 51 -36 102 -36c62 0 116 43 140 85 c9 16 13 41 13 74c0 20 -1 42 -5 67c-8 53 -18 106 -26 159zM461 939c-95 0 -135 -175 -135 -286c0 -24 2 -48 5 -71c50 39 92 82 127 128c40 53 60 100 60 140v8c-4 53 -22 81 -55 81h-2zM406 119l54 -326c73 25 110 78 110 161c0 7 0 15 -1 23c-7 95 -57 142 -151 142h-12 zM382 117c-72 -2 -128 -47 -128 -120v-7c2 -46 43 -99 75 -115c-3 -2 -7 -5 -10 -10c-70 33 -116 88 -123 172v11c0 68 44 126 88 159c23 17 49 29 78 36l-29 170c-21 -13 -52 -37 -92 -73c-50 -44 -86 -84 -109 -119c-45 -69 -67 -130 -67 -182v-13c5 -68 35 -127 93 -176 s125 -73 203 -73c25 0 50 3 75 9c-19 111 -36 221 -54 331z" />
      </g>
      <g id="E0A4-pavwxxh">
         <path transform="scale(1,-1)" d="M0 -39c0 68 73 172 200 172c66 0 114 -37 114 -95c0 -84 -106 -171 -218 -171c-64 0 -96 30 -96 94z" />
      </g>
      <g id="E260-pavwxxh">
         <path transform="scale(1,-1)" d="M20 110c32 16 54 27 93 27c26 0 35 -3 54 -13c13 -7 24 -20 27 -38l4 -25c0 -28 -16 -57 -45 -89c-23 -25 -39 -44 -65 -68l-88 -79v644h20v-359zM90 106c-32 0 -48 -10 -70 -29v-194c31 31 54 59 71 84c21 32 32 59 32 84c0 9 1 16 1 20c0 14 -3 21 -11 30l-8 3z" />
      </g>
   </defs>
   <style type="text/css">#pavwxxh g.ending, #pavwxxh g.fing, #pavwxxh g.reh, #pavwxxh g.tempo {font-weight:bold;}#pavwxxh g.dir, #pavwxxh g.dynam, #pavwxxh g.mNum {font-style:italic;}#pavwxxh g.label {font-weight:normal;}#pavwxxh ellipse, #pavwxxh path, #pavwxxh polygon, #pavwxxh polyline, #pavwxxh rect {stroke:currentColor}</style>
   <svg class="definition-scale" color="black" font-family="Times, serif" viewBox="0 0 3690 2800">
      <g class="page-margin" transform="translate(500, 500)">
         <g id="q1x3t5e1" class="mdiv pageMilestone" />
         <g id="r1ygqsbk" class="score pageMilestone" />
         <g id="lc5bj72" class="system">
            <g id="t1uddm7i" class="section systemMilestone" />
            <g id="a1jvhemg" class="section systemMilestone" />
            <g id="gfkdtfv" class="measure">
               <g id="p1k7eizk" class="staff">
                  <path d="M0 540 L2691 540" stroke-width="13" />
                  <path d="M0 720 L2691 720" stroke-width="13" />
                  <path d="M0 900 L2691 900" stroke-width="13" />
                  <path d="M0 1080 L2691 1080" stroke-width="13" />
                  <path d="M0 1260 L2691 1260" stroke-width="13" />
                  <g id="xws2rhn" class="clef">
                     <use xlink:href="#E050-pavwxxh" transform="translate(90, 1080) scale(0.72, 0.72)" />
                  </g>
                  <g id="y19sjgr5" class="keySig" />
                  <g id="z1wmkuyn" class="meterSig" visibility="hidden" />
                  <g id="rxehn5x" class="layer">
                     <g id="szvo1lv" class="note">
                        <g class="notehead">
                           <use xlink:href="#E0A4-pavwxxh" transform="translate(825, 810) scale(0.72, 0.72)" />
                        </g>
                        <g id="y8t2w29" class="stem">
                           <path d="M834 838 L834 1440" stroke-width="18" />
                        </g>
                        <g id="taymsnj" class="accid" />
                     </g>
                     <g id="u16exop3" class="note">
                        <g class="notehead">
                           <use xlink:href="#E0A4-pavwxxh" transform="translate(1418, 630) scale(0.72, 0.72)" />
                        </g>
                        <g id="zft4c88" class="stem">
                           <path d="M1427 658 L1427 1260" stroke-width="18" />
                        </g>
                        <g id="v1lbyqi9" class="accid">
                           <use xlink:href="#E260-pavwxxh" transform="translate(1231, 630) scale(0.72, 0.72)" />
                        </g>
                     </g>
                     <g id="w1k6c7x5" class="note">
                        <g class="notehead">
                           <use xlink:href="#E0A4-pavwxxh" transform="translate(1758, 720) scale(0.72, 0.72)" />
                        </g>
                        <g id="al51yrl" class="stem">
                           <path d="M1767 748 L1767 1350" stroke-width="18" />
                        </g>
                        <g id="x1te16nf" class="accid" />
                     </g>
                     <g id="y1wpn0jf" class="note">
                        <g class="notehead">
                           <use xlink:href="#E0A4-pavwxxh" transform="translate(2351, 720) scale(0.72, 0.72)" />
                        </g>
                        <g id="b1bays21" class="stem">
                           <path d="M2360 748 L2360 1350" stroke-width="18" />
                        </g>
                        <g id="z1ocxca3" class="accid">
                           <use xlink:href="#E260-pavwxxh" transform="translate(2164, 720) scale(0.72, 0.72)" />
                        </g>
                     </g>
                  </g>
               </g>
               <g id="qrz4yi" class="tempo">
                  <text x="825" y="495" font-size="0px" />
               </g>
               <g id="obv7rzz" class="barLine" />
            </g>
            <g id="j4kfx9h" class="systemMilestoneEnd a1jvhemg" />
            <g id="kmx7n0i" class="systemMilestoneEnd t1uddm7i" />
         </g>
         <g id="l11nf02r" class="pageMilestoneEnd r1ygqsbk" />
         <g id="m187jfkg" class="pageMilestoneEnd q1x3t5e1" />
         <g id="nyjr6lu" class="pgHead autogenerated" />
      </g>
   </svg>
</svg>
