<?xml version="1.0" encoding="UTF-8" standalone="no"?>
<svg width="458px" height="280px" version="1.1" xmlns="http://www.w3.org/2000/svg" xmlns:xlink="http://www.w3.org/1999/xlink" overflow="visible" id="q9vxb7e">
   <desc>Engraved by Verovio 6.1.0</desc>
   <defs>
      <g id="E050-q9vxb7e">
         <path transform="scale(1,-1)" d="M441 -245c-23 -4 -48 -6 -76 -6c-59 0 -102 7 -130 20c-88 42 -150 93 -187 154c-26 44 -43 103 -48 176c0 6 -1 13 -1 19c0 54 15 111 45 170c29 57 65 106 110 148s96 85 153 127c-3 16 -8 46 -13 92c-4 43 -5 73 -5 89c0 117 16 172 69 257c34 54 64 82 89 82 c21 0 43 -30 69 -92s39 -115 41 -159v-15c0 -109 -21 -162 -67 -241c-13 -20 -63 -90 -98 -118c-13 -9 -25 -19 -37 -29l31 -181c8 1 18 2 28 2c58 0 102 -12 133 -35c59 -43 92 -104 98 -184c1 -7 1 -15 1 -22c0 -123 -87 -209 -181 -248c8 -57 17 -110 25 -162 c5 -31 6 -58 6 -80c0 -30 -5 -53 -14 -70c-35 -64 -88 -99 -158 -103c-5 0 -11 -1 -16 -1c-37 0 -72 10 -108 27c-50 24 -77 59 -80 105v11c0 29 7 55 20 76c18 28 45 42 79 44h6c49 0 93 -42 97 -87v-9c0 -51 -34 -86 -105 -106c17 -24 51 -36 102 -36c62 0 116 43 140 85 c9 16 13 41 13 74c0 20 -1 42 -5 67c-8 53 -18 106 -26 159zM461 939c-95 0 -135 -175 -135 -286c0 -24 2 -48 5 -71c50 39 92 82 127 128c40 53 60 100 60 140v8c-4 53 -22 81 -55 81h-2zM406 119l54 -326c73 25 110 78 110 161c0 7 0 15 -1 23c-7 95 -57 142 -151 142h-12 zM382 117c-72 -2 -128 -47 -128 -120v-7c2 -46 43 -99 75 -115c-3 -2 -7 -5 -10 -10c-70 33 -116 88 -123 172v11c0 68 44 126 88 159c23 17 49 29 78 36l-29 170c-21 -13 -52 -37 -92 -73c-50 -44 -86 -84 -109 -119c-45 -69 -67 -130 -67 -182v-13c5 -68 35 -127 93 -176 s125 -73 203 -73c25 0 50 3 75 9c-19 111 -36 221 -54 331z" />
      </g>
      <g id="E0A4-q9vxb7e">
         <path transform="scale(1,-1)" d="M0 -39c0 68 73 172 200 172c66 0 114 -37 114 -95c0 -84 -106 -171 -218 -171c-64 0 -96 30 -96 94z" />
      </g>
      <g id="E260-q9vxb7e">
         <path transform="scale(1,-1)" d="M20 110c32 16 54 27 93 27c26 0 35 -3 54 -13c13 -7 24 -20 27 -38l4 -25c0 -28 -16 -57 -45 -89c-23 -25 -39 -44 -65 -68l-88 -79v644h20v-359zM90 106c-32 0 -48 -10 -70 -29v-194c31 31 54 59 71 84c21 32 32 59 32 84c0 9 1 16 1 20c0 14 -3 21 -11 30l-8 3z" />
      </g>
      <g id="E0A2-q9vxb7e">
         <path transform="scale(1,-1)" d="M198 133c102 0 207 -45 207 -133c0 -92 -118 -133 -227 -133c-101 0 -178 46 -178 133c0 88 93 133 198 133zM293 -21c0 14 -3 29 -8 44c-7 20 -18 38 -33 54c-20 21 -43 31 -68 31l-20 -2c-15 -5 -27 -14 -36 -28c-4 -9 -6 -17 -8 -24s-3 -16 -3 -27c0 -15 3 -34 9 -57 s18 -41 34 -55c15 -15 36 -23 62 -23c4 0 10 1 18 2c19 5 32 15 40 30s13 34 13 55z" />
      </g>
   </defs>
   <style type="text/css">#q9vxb7e g.ending, #q9vxb7e g.fing, #q9vxb7e g.reh, #q9vxb7e g.tempo {font-weight:bold;}#q9vxb7e g.dir, #q9vxb7e g.dynam, #q9vxb7e g.mNum {font-style:italic;}#q9vxb7e g.label {font-weight:normal;}#q9vxb7e ellipse, #q9vxb7e path, #q9vxb7e polygon, #q9vxb7e polyline, #q9vxb7e rect {stroke:currentColor}</style>
   <svg class="definition-scale" color="black" font-family="Times, serif" viewBox="0 0 4580 2800">
      <g class="page-margin" transform="translate(500, 500)">
         <g id="r1atokoe" class="mdiv pageMilestone" />
         <g id="s15n19fo" class="score pageMilestone" />
         <g id="c1mxmo3o" class="system">
            <g id="u1t9z2ne" class="section systemMilestone" />
            <g id="ifbn2nl" class="section systemMilestone" />
            <g id="hi53p2w" class="measure">
               <g id="q5577r9" class="staff">
                  <path d="M0 540 L3582 540" stroke-width="13" />
                  <path d="M0 720 L3582 720" stroke-width="13" />
                  <path d="M0 900 L3582 900" stroke-width="13" />
                  <path d="M0 1080 L3582 1080" stroke-width="13" />
                  <path d="M0 1260 L3582 1260" stroke-width="13" />
                  <g id="ow1f9cg" class="clef">
                     <use xlink:href="#E050-q9vxb7e" transform="translate(90, 1080) scale(0.72, 0.72)" />
                  </g>
                  <g id="p1jyzkex" class="keySig" />
                  <g id="q1qybcg4" class="meterSig" visibility="hidden" />
                  <g class="ledgerLines below">
                     <path d="M777 1440 L1099 1440" stroke-width="22" />
                  </g>
                  <g id="s1v316zg" class="layer">
                     <g id="toxs7sz" class="note">
                        <g class="notehead">
                           <use xlink:href="#E0A4-q9vxb7e" transform="translate(825, 1440) scale(0.72, 0.72)" />
                        </g>
                        <g id="gtvb68x" class="stem">
                           <path d="M1042 1412 L1042 810" stroke-width="18" />
                        </g>
                        <g id="u1ap4ko8" class="accid" />
                     </g>
                     <g id="v7bp9r1" class="note">
                        <g class="notehead">
                           <use xlink:href="#E0A4-q9vxb7e" transform="translate(1165, 1350) scale(0.72, 0.72)" />
                        </g>
                        <g id="heczam" class="stem">
                           <path d="M1382 1322 L1382 720" stroke-width="18" />
                        </g>
                        <g id="wb1tgxj" class="accid" />
                     </g>
                     <g id="x1wv28lb" class="beam">
                        <polygon points="1966,540 2932,360 2932,450 1966,630" />
                        <g id="yn4et0v" class="note">
                           <g class="notehead">
                              <use xlink:href="#E0A4-q9vxb7e" transform="translate(1758, 1260) scale(0.72, 0.72)" />
                           </g>
                           <g id="i1359sc7" class="stem">
                              <path d="M1975 1232 L1975 558" stroke-width="18" />
                           </g>
                           <g id="z1a8rlnc" class="accid">
                              <use xlink:href="#E260-q9vxb7e" transform="translate(1571, 1260) scale(0.72, 0.72)" />
                           </g>
                        </g>
                        <g id="au8k83" class="note">
                           <g class="notehead">
                              <use xlink:href="#E0A4-q9vxb7e" transform="translate(2074, 1170) scale(0.72, 0.72)" />
                           </g>
                           <g id="jkyu89i" class="stem">
                              <path d="M2291 1142 L2291 498" stroke-width="18" />
                           </g>
                           <g id="b220xse" class="accid" />
                        </g>
                        <g id="cwzy4wl" class="note">
                           <g class="notehead">
                              <use xlink:href="#E0A4-q9vxb7e" transform="translate(2390, 1080) scale(0.72, 0.72)" />
                           </g>
                           <g id="kucb1oy" class="stem">
                              <path d="M2607 1052 L2607 438" stroke-width="18" />
                           </g>
                           <g id="dvg6qu0" class="accid" />
                        </g>
                        <g id="em348yd" class="note">
                           <g class="notehead">
                              <use xlink:href="#E0A4-q9vxb7e" transform="translate(2706, 990) scale(0.72, 0.72)" />
                           </g>
                           <g id="lhizfbf" class="stem">
                              <path d="M2923 962 L2923 378" stroke-width="18" />
                           </g>
                           <g id="fjsimn0" class="accid" />
                        </g>
                     </g>
                     <g id="gfvogmi" class="note">
                        <g class="notehead">
                           <use xlink:href="#E0A2-q9vxb7e" transform="translate(3022, 900) scale(0.72, 0.72)" />
                        </g>
                        <g id="h1c1fcw" class="accid" />
                     </g>
                  </g>
               </g>
               <g id="r8nhjgi" class="tempo">
                  <text x="825" y="495" font-size="0px" />
               </g>
               <g id="pvjb1z7" class="barLine" />
            </g>
            <g id="r18wsj95" class="systemMilestoneEnd ifbn2nl" />
            <g id="sp90j5f" class="systemMilestoneEnd u1t9z2ne" />
         </g>
         <g id="t1yybheq" class="pageMilestoneEnd s15n19fo" />
         <g id="u89zh0p" class="pageMilestoneEnd r1atokoe" />
         <g id="v4unzar" class="pgHead autogenerated" />
      </g>
   </svg>
</svg>
