<?xml version="1.0" encoding="UTF-8" standalone="no"?>
<svg width="294px" height="280px" version="1.1" xmlns="http://www.w3.org/2000/svg" xmlns:xlink="http://www.w3.org/1999/xlink" overflow="visible" id="utkgyvd">
   <desc>Engraved by Verovio 6.1.0</desc>
   <defs>
      <g id="E050-utkgyvd">
         <path transform="scale(1,-1)" d="M441 -245c-23 -4 -48 -6 -76 -6c-59 0 -102 7 -130 20c-88 42 -150 93 -187 154c-26 44 -43 103 -48 176c0 6 -1 13 -1 19c0 54 15 111 45 170c29 57 65 106 110 148s96 85 153 127c-3 16 -8 46 -13 92c-4 43 -5 73 -5 89c0 117 16 172 69 257c34 54 64 82 89 82 c21 0 43 -30 69 -92s39 -115 41 -159v-15c0 -109 -21 -162 -67 -241c-13 -20 -63 -90 -98 -118c-13 -9 -25 -19 -37 -29l31 -181c8 1 18 2 28 2c58 0 102 -12 133 -35c59 -43 92 -104 98 -184c1 -7 1 -15 1 -22c0 -123 -87 -209 -181 -248c8 -57 17 -110 25 -162 c5 -31 6 -58 6 -80c0 -30 -5 -53 -14 -70c-35 -64 -88 -99 -158 -103c-5 0 -11 -1 -16 -1c-37 0 -72 10 -108 27c-50 24 -77 59 -80 105v11c0 29 7 55 20 76c18 28 45 42 79 44h6c49 0 93 -42 97 -87v-9c0 -51 -34 -86 -105 -106c17 -24 51 -36 102 -36c62 0 116 43 140 85 c9 16 13 41 13 74c0 20 -1 42 -5 67c-8 53 -18 106 -26 159zM461 939c-95 0 -135 -175 -135 -286c0 -24 2 -48 5 -71c50 39 92 82 127 128c40 53 60 100 60 140v8c-4 53 -22 81 -55 81h-2zM406 119l54 -326c73 25 110 78 110 161c0 7 0 15 -1 23c-7 95 -57 142 -151 142h-12 zM382 117c-72 -2 -128 -47 -128 -120v-7c2 -46 43 -99 75 -115c-3 -2 -7 -5 -10 -10c-70 33 -116 88 -123 172v11c0 68 44 126 88 159c23 17 49 29 78 36l-29 170c-21 -13 -52 -37 -92 -73c-50 -44 -86 -84 -109 -119c-45 -69 -67 -130 -67 -182v-13c5 -68 35 -127 93 -176 s125 -73 203 -73c25 0 50 3 75 9c-19 111 -36 221 -54 331z" />
      </g>
      <g id="E0A4-utkgyvd">
         <path transform="scale(1,-1)" d="M0 -39c0 68 73 172 200 172c66 0 114 -37 114 -95c0 -84 -106 -171 -218 -171c-64 0 -96 30 -96 94z" />
      </g>
      <g id="E0A3-utkgyvd">
         <path transform="scale(1,-1)" d="M278 64c0 22 -17 39 -43 39c-12 0 -26 -3 -41 -10c-85 -43 -165 -94 -165 -156c5 -25 15 -32 49 -32c67 11 200 95 200 159zM0 -36c0 68 73 174 200 174c66 0 114 -39 114 -97c0 -84 -106 -173 -218 -173c-64 0 -96 32 -96 96z" />
      </g>
   </defs>
   <style type="text/css">#utkgyvd g.ending, #utkgyvd g.fing, #utkgyvd g.reh, #utkgyvd g.tempo {font-weight:bold;}#utkgyvd g.dir, #utkgyvd g.dynam, #utkgyvd g.mNum {font-style:italic;}#utkgyvd g.label {font-weight:normal;}#utkgyvd ellipse, #utkgyvd path, #utkgyvd polygon, #utkgyvd polyline, #utkgyvd rect {stroke:currentColor}</style>
   <svg class="definition-scale" color="black" font-family="Times, serif" viewBox="0 0 2940 2800">
      <g class="page-margin" transform="translate(500, 500)">
         <g id="vm0cskj" class="mdiv pageMilestone" />
         <g id="w1gp8zt3" class="score pageMilestone" />
         <g id="l1c7wtea" class="system">
            <g id="y1h5pmcw" class="section systemMilestone" />
            <g id="d1mrro7x" class="section systemMilestone" />
            <g id="l18tez50" class="measure">
               <g id="u6wpfb2" class="staff">
                  <path d="M0 540 L1945 540" stroke-width="13" />
                  <path d="M0 720 L1945 720" stroke-width="13" />
                  <path d="M0 900 L1945 900" stroke-width="13" />
                  <path d="M0 1080 L1945 1080" stroke-width="13" />
                  <path d="M0 1260 L1945 1260" stroke-width="13" />
                  <g id="x1c580aq" class="clef">
                     <use xlink:href="#E050-utkgyvd" transform="translate(90, 1080) scale(0.72, 0.72)" />
                  </g>
                  <g id="ytumklt" class="keySig" />
                  <g id="zrnjizh" class="meterSig" visibility="hidden" />
                  <g id="w1nxeae4" class="layer">
                     <g id="xdhwqgs" class="note">
                        <g class="notehead">
                           <use xlink:href="#E0A4-utkgyvd" transform="translate(825, 810) scale(0.72, 0.72)" />
                        </g>
                        <g id="b1ec8su" class="stem">
                           <path d="M834 838 L834 1440" stroke-width="18" />
                        </g>
                        <g id="y1otgahk" class="accid" />
                     </g>
                     <g id="zxkq1is" class="note">
                        <g class="notehead">
                           <use xlink:href="#E0A4-utkgyvd" transform="translate(1165, 1080) scale(0.72, 0.72)" />
                        </g>
                        <g id="c190kx2u" class="stem">
                           <path d="M1382 1052 L1382 450" stroke-width="18" />
                        </g>
                        <g id="a6d7ksm" class="accid" />
                     </g>
                     <g id="b2mk7mj" class="note">
                        <g class="notehead">
                           <use xlink:href="#E0A3-utkgyvd" transform="translate(1505, 900) scale(0.72, 0.72)" />
                        </g>
                        <g id="d12fzf00" class="stem">
                           <path d="M1514 925 L1514 1500" stroke-width="18" />
                        </g>
                        <g id="c8yrr2j" class="accid" />
                     </g>
                  </g>
               </g>
               <g id="v6y4qy2" class="tempo">
                  <text x="825" y="495" font-size="0px" />
               </g>
               <g id="ticjoam" class="barLine" />
            </g>
            <g id="myf0ryr" class="systemMilestoneEnd d1mrro7x" />
            <g id="n5gdr8i" class="systemMilestoneEnd y1h5pmcw" />
         </g>
         <g id="o204aqf" class="pageMilestoneEnd w1gp8zt3" />
         <g id="pif0by4" class="pageMilestoneEnd vm0cskj" />
         <g id="q19cpqky" class="pgHead autogenerated" />
      </g>
   </svg>
</svg>
