<?xml version="1.0" encoding="UTF-8" standalone="no"?>
<svg width="419px" height="180px" version="1.1" xmlns="http://www.w3.org/2000/svg" xmlns:xlink="http://www.w3.org/1999/xlink" overflow="visible" id="n1jh75za">
   <desc>Engraved by Verovio 6.1.0</desc>
   <defs>
      <g id="E050-n1jh75za">
         <path transform="scale(1,-1)" d="M441 -245c-23 -4 -48 -6 -76 -6c-59 0 -102 7 -130 20c-88 42 -150 93 -187 154c-26 44 -43 103 -48 176c0 6 -1 13 -1 19c0 54 15 111 45 170c29 57 65 106 110 148s96 85 153 127c-3 16 -8 46 -13 92c-4 43 -5 73 -5 89c0 117 16 172 69 257c34 54 64 82 89 82 c21 0 43 -30 69 -92s39 -115 41 -159v-15c0 -109 -21 -162 -67 -241c-13 -20 -63 -90 -98 -118c-13 -9 -25 -19 -37 -29l31 -181c8 1 18 2 28 2c58 0 102 -12 133 -35c59 -43 92 -104 98 -184c1 -7 1 -15 1 -22c0 -123 -87 -209 -181 -248c8 -57 17 -110 25 -162 c5 -31 6 -58 6 -80c0 -30 -5 -53 -14 -70c-35 -64 -88 -99 -158 -103c-5 0 -11 -1 -16 -1c-37 0 -72 10 -108 27c-50 24 -77 59 -80 105v11c0 29 7 55 20 76c18 28 45 42 79 44h6c49 0 93 -42 97 -87v-9c0 -51 -34 -86 -105 -106c17 -24 51 -36 102 -36c62 0 116 43 140 85 c9 16 13 41 13 74c0 20 -1 42 -5 67c-8 53 -18 106 -26 159zM461 939c-95 0 -135 -175 -135 -286c0 -24 2 -48 5 -71c50 39 92 82 127 128c40 53 60 100 60 140v8c-4 53 -22 81 -55 81h-2zM406 119l54 -326c73 25 110 78 110 161c0 7 0 15 -1 23c-7 95 -57 142 -151 142h-12 zM382 117c-72 -2 -128 -47 -128 -120v-7c2 -46 43 -99 75 -115c-3 -2 -7 -5 -10 -10c-70 33 -116 88 -123 172v11c0 68 44 126 88 159c23 17 49 29 78 36l-29 170c-21 -13 -52 -37 -92 -73c-50 -44 -86 -84 -109 -119c-45 -69 -67 -130 -67 -182v-13c5 -68 35 -127 93 -176 s125 -73 203 -73c25 0 50 3 75 9c-19 111 -36 221 -54 331z" />
      </g>
      <g id="E0A3-n1jh75za">
         <path transform="scale(1,-1)" d="M278 64c0 22 -17 39 -43 39c-12 0 -26 -3 -41 -10c-85 -43 -165 -94 -165 -156c5 -25 15 -32 49 -32c67 11 200 95 200 159zM0 -36c0 68 73 174 200 174c66 0 114 -39 114 -97c0 -84 -106 -173 -218 -173c-64 0 -96 32 -96 96z" />
      </g>
      <g id="E260-n1jh75za">
         <path transform="scale(1,-1)" d="M20 110c32 16 54 27 93 27c26 0 35 -3 54 -13c13 -7 24 -20 27 -38l4 -25c0 -28 -16 -57 -45 -89c-23 -25 -39 -44 -65 -68l-88 -79v644h20v-359zM90 106c-32 0 -48 -10 -70 -29v-194c31 31 54 59 71 84c21 32 32 59 32 84c0 9 1 16 1 20c0 14 -3 21 -11 30l-8 3z" />
      </g>
      <g id="E0A4-n1jh75za">
         <path transform="scale(1,-1)" d="M0 -39c0 68 73 172 200 172c66 0 114 -37 114 -95c0 -84 -106 -171 -218 -171c-64 0 -96 30 -96 94z" />
      </g>
   </defs>
   <style type="text/css">#n1jh75za g.ending, #n1jh75za g.fing, #n1jh75za g.reh, #n1jh75za g.tempo {font-weight:bold;}#n1jh75za g.dir, #n1jh75za g.dynam, #n1jh75za g.mNum {font-style:italic;}#n1jh75za g.label {font-weight:normal;}#n1jh75za ellipse, #n1jh75za path, #n1jh75za polygon, #n1jh75za polyline, #n1jh75za rect {stroke:currentColor}</style>
   <svg class="definition-scale" color="black" font-family="Times, serif" viewBox="0 0 4190 1800">
      <g class="page-margin" transform="translate(0, 0)">
         <g id="o1ylcvy7" class="mdiv pageMilestone" />
         <g id="pcbbzb9" class="score pageMilestone" />
         <g id="e1d0gvz0" class="system">
            <g id="rzqsf4d" class="section systemMilestone" />
            <g id="gfs5q6x" class="section systemMilestone" />
            <g id="ev7pwo2" class="measure">
               <g id="n1480y8j" class="staff">
                  <path d="M0 540 L4192 540" stroke-width="13" />
                  <path d="M0 720 L4192 720" stroke-width="13" />
                  <path d="M0 900 L4192 900" stroke-width="13" />
                  <path d="M0 1080 L4192 1080" stroke-width="13" />
                  <path d="M0 1260 L4192 1260" stroke-width="13" />
                  <g id="qyio4hi" class="clef">
                     <use xlink:href="#E050-n1jh75za" transform="translate(90, 1080) scale(0.72, 0.72)" />
                  </g>
                  <g id="rkmve4y" class="keySig" />
                  <g id="sz9hj71" class="meterSig" visibility="hidden" />
                  <g id="p1r8y5uw" class="layer">
                     <g id="q1ih7wmz" class="note">
                        <g class="notehead">
                           <use xlink:href="#E0A3-n1jh75za" transform="translate(1102, 900) scale(0.72, 0.72)" />
                        </g>
                        <g id="es34ymx" class="stem">
                           <path d="M1111 925 L1111 1500" stroke-width="18" />
                        </g>
                        <g id="r1en6oc" class="accid">
                           <use xlink:href="#E260-n1jh75za" transform="translate(915, 900) scale(0.72, 0.72)" />
                        </g>
                     </g>
                     <g id="seuql76" class="note">
                        <g class="notehead">
                           <use xlink:href="#E0A4-n1jh75za" transform="translate(1542, 1080) scale(0.72, 0.72)" />
                        </g>
                        <g id="f1njoeb9" class="stem">
                           <path d="M1759 1052 L1759 450" stroke-width="18" />
                        </g>
                        <g id="t11ei93h" class="accid" />
                     </g>
                     <g id="u15mj76y" class="note">
                        <g class="notehead">
                           <use xlink:href="#E0A3-n1jh75za" transform="translate(1882, 900) scale(0.72, 0.72)" />
                        </g>
                        <g id="g1rqnbw7" class="stem">
                           <path d="M1891 925 L1891 1500" stroke-width="18" />
                        </g>
                        <g id="v10cjimj" class="accid" />
                     </g>
                     <g id="w112st32" class="note">
                        <g class="notehead">
                           <use xlink:href="#E0A4-n1jh75za" transform="translate(2322, 1080) scale(0.72, 0.72)" />
                        </g>
                        <g id="h1e7fuem" class="stem">
                           <path d="M2539 1052 L2539 450" stroke-width="18" />
                        </g>
                        <g id="xb6eg7v" class="accid" />
                     </g>
                     <g id="y5zvoyh" class="note">
                        <g class="notehead">
                           <use xlink:href="#E0A4-n1jh75za" transform="translate(2662, 900) scale(0.72, 0.72)" />
                        </g>
                        <g id="i21rqax" class="stem">
                           <path d="M2671 928 L2671 1500" stroke-width="18" />
                        </g>
                        <g id="z7e4u0p" class="accid" />
                     </g>
                     <g id="az7vsuc" class="note">
                        <g class="notehead">
                           <use xlink:href="#E0A4-n1jh75za" transform="translate(3002, 1080) scale(0.72, 0.72)" />
                        </g>
                        <g id="j1wd5ozf" class="stem">
                           <path d="M3219 1052 L3219 450" stroke-width="18" />
                        </g>
                        <g id="b1o2q58k" class="accid" />
                     </g>
                     <g id="cvafbru" class="note">
                        <g class="notehead">
                           <use xlink:href="#E0A4-n1jh75za" transform="translate(3342, 1170) scale(0.72, 0.72)" />
                        </g>
                        <g id="k1n8f4jk" class="stem">
                           <path d="M3559 1142 L3559 540" stroke-width="18" />
                        </g>
                        <g id="dqruz4l" class="accid" />
                     </g>
                     <g id="eues85x" class="note">
                        <g class="notehead">
                           <use xlink:href="#E0A3-n1jh75za" transform="translate(3682, 1080) scale(0.72, 0.72)" />
                        </g>
                        <g id="md1t2wh" class="dots">
                           <ellipse cx="3998" cy="990" rx="36" ry="36" />
                        </g>
                        <g id="l16axly9" class="stem">
                           <path d="M3899 1052 L3899 450" stroke-width="18" />
                        </g>
                        <g id="fsm4shf" class="accid" />
                     </g>
                  </g>
               </g>
               <g id="o1c32i0f" class="tempo">
                  <text x="915" y="495" font-size="0px" />
               </g>
               <g id="m1xwk68m" class="barLine" />
            </g>
            <g id="p9lvqm7" class="systemMilestoneEnd gfs5q6x" />
            <g id="q1y9dg81" class="systemMilestoneEnd rzqsf4d" />
         </g>
         <g id="r1pbx47o" class="pageMilestoneEnd pcbbzb9" />
         <g id="sggqg6u" class="pageMilestoneEnd o1ylcvy7" />
         <g id="t1g55kzc" class="pgHead autogenerated" />
      </g>
   </svg>
</svg>
