<?xml version="1.0" encoding="UTF-8" standalone="no"?>
<svg width="463px" height="280px" version="1.1" xmlns="http://www.w3.org/2000/svg" xmlns:xlink="http://www.w3.org/1999/xlink" overflow="visible" id="r1xqmz8y">
   <desc>Engraved by Verovio 6.1.0</desc>
   <defs>
      <g id="E050-r1xqmz8y">
         <path transform="scale(1,-1)" d="M441 -245c-23 -4 -48 -6 -76 -6c-59 0 -102 7 -130 20c-88 42 -150 93 -187 154c-26 44 -43 103 -48 176c0 6 -1 13 -1 19c0 54 15 111 45 170c29 57 65 106 110 148s96 85 153 127c-3 16 -8 46 -13 92c-4 43 -5 73 -5 89c0 117 16 172 69 257c34 54 64 82 89 82 c21 0 43 -30 69 -92s39 -115 41 -159v-15c0 -109 -21 -162 -67 -241c-13 -20 -63 -90 -98 -118c-13 -9 -25 -19 -37 -29l31 -181c8 1 18 2 28 2c58 0 102 -12 133 -35c59 -43 92 -104 98 -184c1 -7 1 -15 1 -22c0 -123 -87 -209 -181 -248c8 -57 17 -110 25 -162 c5 -31 6 -58 6 -80c0 -30 -5 -53 -14 -70c-35 -64 -88 -99 -158 -103c-5 0 -11 -1 -16 -1c-37 0 -72 10 -108 27c-50 24 -77 59 -80 105v11c0 29 7 55 20 76c18 28 45 42 79 44h6c49 0 93 -42 97 -87v-9c0 -51 -34 -86 -105 -106c17 -24 51 -36 102 -36c62 0 116 43 140 85 c9 16 13 41 13 74c0 20 -1 42 -5 67c-8 53 -18 106 -26 159zM461 939c-95 0 -135 -175 -135 -286c0 -24 2 -48 5 -71c50 39 92 82 127 128c40 53 60 100 60 140v8c-4 53 -22 81 -55 81h-2zM406 119l54 -326c73 25 110 78 110 161c0 7 0 15 -1 23c-7 95 -57 142 -151 142h-12 zM382 117c-72 -2 -128 -47 -128 -120v-7c2 -46 43 -99 75 -115c-3 -2 -7 -5 -10 -10c-70 33 -116 88 -123 172v11c0 68 44 126 88 159c23 17 49 29 78 36l-29 170c-21 -13 -52 -37 -92 -73c-50 -44 -86 -84 -109 -119c-45 -69 -67 -130 -67 -182v-13c5 -68 35 -127 93 -176 s125 -73 203 -73c25 0 50 3 75 9c-19 111 -36 221 -54 331z" />
      </g>
      <g id="E0A4-r1xqmz8y">
         <path transform="scale(1,-1)" d="M0 -39c0 68 73 172 200 172c66 0 114 -37 114 -95c0 -84 -106 -171 -218 -171c-64 0 -96 30 -96 94z" />
      </g>
      <g id="E26A-r1xqmz8y">
         <path transform="scale(1,-1)" d="M163 -235v-11c0 -3 -1 -4 -1 -4h-2c-108 62 -160 150 -160 250s52 188 160 250h2s1 -1 1 -4v-11s0 -9 -3 -10c-78 -45 -110 -110 -110 -225s32 -180 110 -225c3 -1 3 -7 3 -10z" />
      </g>
      <g id="E260-r1xqmz8y">
         <path transform="scale(1,-1)" d="M20 110c32 16 54 27 93 27c26 0 35 -3 54 -13c13 -7 24 -20 27 -38l4 -25c0 -28 -16 -57 -45 -89c-23 -25 -39 -44 -65 -68l-88 -79v644h20v-359zM90 106c-32 0 -48 -10 -70 -29v-194c31 31 54 59 71 84c21 32 32 59 32 84c0 9 1 16 1 20c0 14 -3 21 -11 30l-8 3z" />
      </g>
      <g id="E26B-r1xqmz8y">
         <path transform="scale(1,-1)" d="M0 -235c0 3 0 9 3 10c78 45 110 110 110 225s-32 180 -110 225c-3 1 -3 10 -3 10v11c0 3 1 4 1 4h2c108 -62 160 -150 160 -250s-52 -188 -160 -250h-2s-1 1 -1 4v11z" />
      </g>
   </defs>
   <style type="text/css">#r1xqmz8y g.ending, #r1xqmz8y g.fing, #r1xqmz8y g.reh, #r1xqmz8y g.tempo {font-weight:bold;}#r1xqmz8y g.dir, #r1xqmz8y g.dynam, #r1xqmz8y g.mNum {font-style:italic;}#r1xqmz8y g.label {font-weight:normal;}#r1xqmz8y ellipse, #r1xqmz8y path, #r1xqmz8y polygon, #r1xqmz8y polyline, #r1xqmz8y rect {stroke:currentColor}</style>
   <svg class="definition-scale" color="black" font-family="Times, serif" viewBox="0 0 4630 2800">
      <g class="page-margin" transform="translate(500, 500)">
         <g id="br99oqa" class="mdiv pageMilestone" />
         <g id="ct6eccp" class="score pageMilestone" />
         <g id="tm4k2qn" class="system">
            <g id="ed78b5y" class="section systemMilestone" />
            <g id="k1bq4xow" class="section systemMilestone" />
            <g id="r1sv72zs" class="measure">
               <g id="agf8z3z" class="staff">
                  <path d="M0 540 L3634 540" stroke-width="13" />
                  <path d="M0 720 L3634 720" stroke-width="13" />
                  <path d="M0 900 L3634 900" stroke-width="13" />
                  <path d="M0 1080 L3634 1080" stroke-width="13" />
                  <path d="M0 1260 L3634 1260" stroke-width="13" />
                  <g id="fp40b5b" class="clef">
                     <use xlink:href="#E050-r1xqmz8y" transform="translate(90, 1080) scale(0.72, 0.72)" />
                  </g>
                  <g id="gh7nvo2" class="keySig" />
                  <g id="hona557" class="meterSig" visibility="hidden" />
                  <g id="b17f9bbo" class="layer">
                     <g id="c11w33sy" class="note">
                        <g class="notehead">
                           <use xlink:href="#E0A4-r1xqmz8y" transform="translate(825, 810) scale(0.72, 0.72)" />
                        </g>
                        <g id="h1uc0t4a" class="stem">
                           <path d="M834 838 L834 1440" stroke-width="18" />
                        </g>
                        <g id="d12hmx57" class="accid" />
                     </g>
                     <g id="e1wqatuh" class="note">
                        <g class="notehead">
                           <use xlink:href="#E0A4-r1xqmz8y" transform="translate(1515, 900) scale(0.72, 0.72)" />
                        </g>
                        <g id="i49tkdk" class="stem">
                           <path d="M1524 928 L1524 1500" stroke-width="18" />
                        </g>
                        <g id="fca8nut" class="accid" />
                     </g>
                     <g id="g1nifvk0" class="note">
                        <g class="notehead">
                           <use xlink:href="#E0A4-r1xqmz8y" transform="translate(2254, 720) scale(0.72, 0.72)" />
                        </g>
                        <g id="j1e84gtv" class="stem">
                           <path d="M2263 748 L2263 1350" stroke-width="18" />
                        </g>
                        <g id="h4v40ql" class="accid">
                           <use xlink:href="#E26A-r1xqmz8y" transform="translate(1831, 720) scale(0.72, 0.72)" />
                           <use xlink:href="#E260-r1xqmz8y" transform="translate(1948, 720) scale(0.72, 0.72)" />
                           <use xlink:href="#E26B-r1xqmz8y" transform="translate(2092, 720) scale(0.72, 0.72)" />
                        </g>
                     </g>
                     <g id="ii6994i" class="note">
                        <g class="notehead">
                           <use xlink:href="#E0A4-r1xqmz8y" transform="translate(2944, 810) scale(0.72, 0.72)" />
                        </g>
                        <g id="ka4wjmr" class="stem">
                           <path d="M2953 838 L2953 1440" stroke-width="18" />
                        </g>
                        <g id="jiu5yc5" class="accid" />
                     </g>
                  </g>
               </g>
               <g id="zxcwe7c" class="barLine" />
            </g>
            <g id="t1ql96xl" class="systemMilestoneEnd k1bq4xow" />
            <g id="u1i5yhh9" class="systemMilestoneEnd ed78b5y" />
         </g>
         <g id="v1ktabv7" class="pageMilestoneEnd ct6eccp" />
         <g id="wttbq6a" class="pageMilestoneEnd br99oqa" />
         <g id="x1azyx9g" class="pgHead autogenerated" />
      </g>
   </svg>
</svg>
